<svg xmlns="http://www.w3.org/2000/svg" xmlns:xlink="http://www.w3.org/1999/xlink" viewBox="0 0 1366 718.73"><defs><style>.cls-1{fill:url(#linear-gradient);}</style><linearGradient id="linear-gradient" x1="983.86" y1="161.25" x2="122.04" y2="689.8" gradientUnits="userSpaceOnUse"><stop offset="0" stop-color="#2aa9ff"/><stop offset="1" stop-color="#3fffec"/></linearGradient></defs><title>bg</title><g id="Layer_2" data-name="Layer 2"><g id="Layer_1-2" data-name="Layer 1"><path class="cls-1" d="M126.33,682.5c48.41,0,90,16.17,135.72,31,4.94,1.59,10,3.21,15.21,2.93,6-.33,11.56-3.17,17-5.78,77.74-37.45,172.71-37,250.13,1,5.62,2.77,11.35,5.78,17.6,6.23,8.44.6,16.38-3.52,24-7.19,78.52-37.87,174.64-37.1,252.54,2,5.75,2.88,11.75,6,18.18,5.81,5.47-.21,10.51-2.88,15.41-5.34,80.22-40.42,179.65-40.35,259.82.17,5,2.55,10.28,5.32,15.94,5.36,6,0,11.49-2.94,16.79-5.68,39.8-20.55,84.3-30.55,129-30.55a292.81,292.81,0,0,1,72.33,9V309S1223,163,999,160,683,0,683,0H0V711.16A290.9,290.9,0,0,1,126.33,682.5Z"/></g></g></svg>